<svg height="512" viewBox="0 0 60 60" width="512" xmlns="http://www.w3.org/2000/svg"><g id="003---Empty-Wallet"><path id="Shape" d="m58.605 19.088-27.964-8.982c-.406077-.14255828-.84814-.14537397-1.256-.008l-27.994 8.991c-.8293713.2674649-1.39137814 1.0395678-1.391 1.911v26.69c.00062029 1.2797609.81300553 2.4182246 2.023 2.835l26.99 9.306c.3169501.1122257.6507681.169384.987.169.3318746-.000011.6612984-.0568316.974-.168l27-9.31c1.2101378-.4153915 2.0236598-1.5525556 2.026-2.832v-26.69c-.0000626-.8727728-.5638907-1.6455609-1.395-1.912zm-29.605-6.764v13.676c0 .5522847.4477153 1 1 1s1-.4477153 1-1v-13.678l27 8.67v.008.008h-.006l-27.994 8.992-27.994-9.008zm-27 35.366v-24.583l27 8.672v25.932l-26.323-9.076c-.40438436-.1380134-.6764021-.5177132-.677-.945zm55.324.945-26.324 9.077v-25.933l27-8.673v24.584c-.0004515.4270241-.2720105.8066443-.676.945z"/><path id="Shape" d="m25.611 32.791-19-6.1c-.60796252-.1950584-1.27251906-.0881174-1.78859612.2878223s-.8216429.9756907-.82240388 1.6141777v16.957c.00031543.8529993.54160021 1.6119223 1.348 1.89l19 6.552c.6114179.2108407 1.2870507.1130063 1.8135474-.262609s.8388602-.9826411.8384526-1.629391v-17.4c.0039295-.8714999-.5585713-1.6445842-1.389-1.909zm-19.611 2.581 19 6.1v4.678l-19-6.1zm19-.672v4.679l-19-6.1v-4.686zm-19 10.85v-3.4l19 6.1v3.85z"/><path id="Shape" d="m55.178 26.976c-.5168452-.3744491-1.180752-.4813274-1.789-.288l-19 6.1c-.8314903.2647463-1.3942452 1.0393952-1.389 1.912v17.4c.000239.646397.31287 1.2528242.839267 1.6279714s1.2016488.4727541 1.812733.2620286l19-6.552c.8057058-.2778376 1.3468323-1.0357358 1.348-1.888v-16.957c-.0015427-.6389828-.3066641-1.2392034-.822-1.617zm-1.178 1.617v6.958l-5.025 1.611c-1.2098968.4099498-2.0109579 1.5610442-1.975 2.838-.0025611.8846017-.5859428 1.6624401-1.4344445 1.9125831s-1.7605383-.0868378-2.2425555-.8285831c-.7080251-1.0515321-2.0342007-1.4961886-3.233-1.084l-5.09 1.631v-6.931zm-19 23.507v-8.37l5.7-1.822c.3371005-.1259163.7169536-.0219905.943.258.964821 1.4891858 2.7953944 2.1647567 4.4963139 1.6593591s2.8655837-2.0709493 2.8606861-3.8453591c-.0281955-.4004132.2095829-.7719165.585-.914l4.415-1.415v7.9z"/><path id="Path" d="m30 8c.5522847 0 1-.44771525 1-1v-6c0-.55228475-.4477153-1-1-1s-1 .44771525-1 1v6c0 .55228475.4477153 1 1 1z"/><path id="Path" d="m16.105 9.447c.2468713.49429485.8477051.6948713 1.342.448.4942949-.24687128.6948713-.84770515.448-1.342l-3-6c-.2468713-.49429485-.8477051-.69487128-1.342-.448s-.6948713.84770515-.448 1.342z"/><path id="Path" d="m42.553 9.9c.23847.1199018.5149779.139492.7679708.0544098.2529929-.08508225.4614723-.26777513.5790292-.5074098l3-6c.2468713-.49429485.0462949-1.09512872-.448-1.342s-1.0951287-.04629485-1.342.448l-3 6c-.1206086.23724257-.1416713.51277591-.0585246.76559422.0831466.25281831.2636427.4620632.5015246.58140578z"/></g></svg>