<svg enable-background="new 0 0 64 64" height="512" viewBox="0 0 64 64" width="512" xmlns="http://www.w3.org/2000/svg"><g id="shopping_cart_1_"><g><path d="m30.8 26.63c-.07-.65-.11-1.32-.11-1.99 0-.68.04-1.35.11-2.01h-18.35l-1.55-5.89c-.23-.88-1.03-1.49-1.93-1.49h-6.97c-1.1 0-2 .9-2 2s.9 2 2 2h5.43l1.55 5.9c0 .01.01.01.01.01l4.86 18.74c.23.88 1.03 1.49 1.94 1.49h.24c-.29.72-.45 1.5-.45 2.32 0 3.48 2.83 6.31 6.31 6.31s6.31-2.83 6.31-6.31c0-.82-.16-1.6-.45-2.32h4.76c-.29.72-.45 1.5-.45 2.32 0 3.48 2.83 6.31 6.31 6.31s6.31-2.83 6.31-6.31c0-.82-.16-1.6-.45-2.32h.24c.91 0 1.71-.61 1.94-1.49l.21-.81c-1.94-.28-3.78-.87-5.48-1.7-5.62-2.76-9.65-8.27-10.34-14.76zm-6.6 21.08c0 1.27-1.03 2.31-2.31 2.31-1.27 0-2.31-1.04-2.31-2.31 0-1.28 1.04-2.32 2.31-2.32 1.28 0 2.31 1.04 2.31 2.32zm16.48 0c0 1.27-1.04 2.31-2.31 2.31-1.28 0-2.31-1.04-2.31-2.31 0-1.28 1.03-2.32 2.31-2.32 1.27 0 2.31 1.04 2.31 2.32z"/><path d="m49.34 9.98c-8.08 0-14.65 6.58-14.65 14.66s6.57 14.65 14.65 14.65c8.09 0 14.66-6.57 14.66-14.65s-6.57-14.66-14.66-14.66zm4.35 16.66h-2.35v2.35c0 1.1-.89 2-2 2-1.1 0-2-.9-2-2v-2.35h-2.34c-1.11 0-2-.9-2-2 0-1.11.89-2 2-2h2.34v-2.35c0-1.11.9-2 2-2 1.11 0 2 .89 2 2v2.35h2.35c1.11 0 2 .89 2 2 0 1.1-.89 2-2 2z"/></g></g></svg>