<svg id="Layer_1" height="512" viewBox="0 0 512 512" width="512" xmlns="http://www.w3.org/2000/svg" data-name="Layer 1"><circle cx="256" cy="256" fill="#f44336" r="256"/><path d="m311.252 365.122a11.29 11.29 0 0 0 22.58 0v-159.791a11.29 11.29 0 0 0 -22.58 0zm-66.542 0a11.29 11.29 0 0 0 22.58 0v-159.791a11.29 11.29 0 0 0 -22.58 0zm-66.542 0a11.29 11.29 0 0 0 22.58 0v-159.791a11.29 11.29 0 0 0 -22.58 0zm144.194-271.622a16.928 16.928 0 1 1 0 33.855h-132.724a16.928 16.928 0 1 1 0-33.855zm44.591 315.77a9.875 9.875 0 0 1 -9.853 9.23h-202.2a9.876 9.876 0 0 1 -9.853-9.229l-15.992-246.812a9.912 9.912 0 0 1 9.853-10.517h234.185a9.911 9.911 0 0 1 9.852 10.517q-7.995 123.41-15.992 246.811z" fill="#fff" fill-rule="evenodd"/></svg>