<svg id="Layer_1" enable-background="new 0 0 511.992 511.992" height="512" viewBox="0 0 511.992 511.992" width="512" xmlns="http://www.w3.org/2000/svg"><path d="m510.616 196.061c-3.944-12.14-15.729-20.486-32.329-22.898l-131.649-19.131-58.876-119.293c-7.424-15.044-19.003-23.671-31.767-23.671s-24.342 8.628-31.766 23.671l-58.873 119.292-131.65 19.132c-16.602 2.412-28.385 10.757-32.33 22.897-3.944 12.14.683 25.818 12.695 37.526l95.262 92.857-22.489 131.12c-2.957 17.247 2.066 27.561 6.8 33.176 5.538 6.568 13.617 10.186 22.749 10.186 6.905 0 14.257-2.025 21.85-6.019l117.753-61.906 117.752 61.905c7.595 3.994 14.946 6.019 21.853 6.019h.001c9.133 0 17.212-3.618 22.75-10.186 4.734-5.615 9.757-15.929 6.799-33.177l-22.493-131.118 95.263-92.856c12.011-11.709 16.639-25.386 12.695-37.526zm-33.636 16.043-100.91 98.361c-3.536 3.446-5.149 8.411-4.314 13.277l23.826 138.89c.767 4.473.378 7.155.016 8.291-.905-.001-3.479-.254-7.888-2.572l-124.733-65.575c-2.186-1.149-4.583-1.723-6.98-1.723s-4.795.574-6.98 1.723l-124.734 65.576c-4.404 2.316-6.977 2.57-7.883 2.571-.363-1.136-.752-3.818.015-8.291l23.822-138.891c.834-4.866-.779-9.831-4.314-13.277l-100.91-98.362c-3.254-3.172-4.515-5.572-4.887-6.702.965-.695 3.396-1.896 7.895-2.55l139.456-20.266c4.886-.71 9.109-3.779 11.294-8.206l62.364-126.365c2.01-4.074 3.903-6.015 4.863-6.719.96.704 2.854 2.645 4.864 6.72l62.365 126.364c2.186 4.427 6.408 7.496 11.294 8.206l139.454 20.266c4.498.653 6.929 1.854 7.894 2.55-.374 1.131-1.635 3.532-4.889 6.704z"/></svg>