<?xml version="1.0" encoding="UTF-8"?>
<!-- Generator: Adobe Illustrator 25.4.1, SVG Export Plug-In . SVG Version: 6.00 Build 0)  -->
<svg xmlns="http://www.w3.org/2000/svg" xmlns:xlink="http://www.w3.org/1999/xlink" version="1.1" id="Capa_1" x="0px" y="0px" viewBox="0 0 512 512" style="enable-background:new 0 0 512 512;" xml:space="preserve" width="512" height="512">
<path style="fill:#1428A0;" d="M19.455,237.992c-0.354-1.475-0.271-3.033-0.074-3.844c0.5-2.332,2.083-4.933,6.699-4.933  c4.281,0,6.802,2.661,6.802,6.648c0,1.352,0,4.53,0,4.53h18.257v-5.141c0-15.922-14.356-18.46-24.705-18.46  c-13.001,0-23.625,4.316-25.568,16.268c-0.531,3.281-0.623,6.168,0.146,9.866c3.17,14.965,29.183,19.292,32.967,28.761  c0.709,1.76,0.494,4.021,0.143,5.405c-0.6,2.461-2.252,4.944-7.148,4.944c-4.573,0-7.308-2.664-7.308-6.665l-0.026-7.042H0v5.596  c0,16.365,12.853,21.287,26.608,21.287c13.224,0,24.085-4.507,25.857-16.757c0.88-6.314,0.22-10.423-0.077-11.981  C49.298,251.11,21.538,246.56,19.455,237.992z M257.498,238.171c-0.326-1.446-0.232-2.981-0.063-3.784  c0.523-2.343,2.098-4.898,6.633-4.898c4.227,0,6.705,2.635,6.705,6.591c0,1.335,0,4.476,0,4.476h18.046v-5.102  c0-15.771-14.139-18.249-24.376-18.249c-12.893,0-23.422,4.25-25.345,16.117c-0.509,3.23-0.635,6.096,0.174,9.755  c3.135,14.796,28.895,19.089,32.633,28.446c0.66,1.772,0.471,4.033,0.134,5.364c-0.56,2.435-2.198,4.885-7.054,4.885  c-4.556,0-7.297-2.618-7.297-6.565l-0.006-7.025H238.26v5.585c0,16.179,12.673,21.061,26.323,21.061  c13.072,0,23.87-4.467,25.602-16.577c0.826-6.256,0.203-10.332-0.129-11.866C287.029,251.207,259.575,246.643,257.498,238.171z   M423.701,278.053l-17.237-58.93h-27.163v72.431h17.968l-1.043-60.816l18.512,60.816h26.051v-72.431h-18.086L423.701,278.053z   M78.362,219.123l-13.559,73.194h19.772l10.217-67.759l9.972,67.759h19.635l-13.501-73.194H78.362z M188.919,219.123l-9.234,57.215  l-9.229-57.215h-29.861l-1.583,73.194h18.294l0.495-67.759l12.587,67.759h18.56l12.598-67.759l0.497,67.759h18.34l-1.638-73.194  H188.919z M359.007,219.123h-18.512v54.148c0.029,0.943,0,2.003-0.163,2.781c-0.386,1.818-1.926,5.316-7.034,5.316  c-5.041,0-6.622-3.498-6.979-5.316c-0.186-0.777-0.208-1.838-0.186-2.781v-54.148h-18.506v52.468  c-0.023,1.352,0.083,4.116,0.163,4.839c1.277,13.673,12.052,18.111,25.508,18.111c13.482,0,24.25-4.439,25.551-18.111  c0.103-0.723,0.237-3.487,0.157-4.839V219.123z M486.109,251.233v10.675h7.502v10.592c0.023,0.946-0.029,1.966-0.192,2.784  c-0.297,1.975-2.175,5.339-7.499,5.339c-5.293,0-7.137-3.364-7.457-5.339c-0.134-0.817-0.192-1.838-0.192-2.784v-33.453  c0-1.183,0.08-2.478,0.332-3.458c0.363-1.784,1.943-5.299,7.277-5.299c5.599,0,6.997,3.707,7.317,5.299  c0.211,1.054,0.223,2.824,0.223,2.824v4.061h18.435v-2.401c0,0,0.083-2.506-0.14-4.844c-1.386-13.73-12.698-18.074-25.671-18.074  c-12.995,0-24.079,4.384-25.694,18.074c-0.146,1.252-0.369,3.504-0.369,4.844v30.773c0,1.34,0.043,2.378,0.292,4.827  c1.203,13.353,12.775,18.086,25.719,18.086c13.024,0,24.516-4.733,25.74-18.086c0.217-2.449,0.24-3.487,0.269-4.827v-19.612H486.109  z"/>















</svg>
