<svg enable-background="new 0 0 512 512" height="512" viewBox="0 0 512 512" width="512" xmlns="http://www.w3.org/2000/svg"><g id="Layer_2"><g><g><path d="m259.5 460c-2.6 0-5.1-.7-7.3-1.9-41.9-23.4-76.1-54.2-101.5-91.4-20.4-29.8-35.2-63.7-44.1-100.7-15.1-62.9-7.9-113-7.6-115 1-6.3 5.8-11.4 12.1-12.5l8.9-1.6c49.8-9.1 95-35 128-73.5 5.4-6.3 14.9-7 21.2-1.6.6.5 1.1 1 1.6 1.6 33 38.4 78.2 64.4 128 73.5l8.9 1.6c6.3 1.1 11.2 6.2 12.2 12.5.3 2.1 7.5 52.2-7.5 115-8.9 37.1-23.7 71-44.1 100.7-25.5 37.3-59.6 68-101.5 91.4-2.2 1.3-4.7 1.9-7.3 1.9zm-131.8-294.1c-1.9 31.6.9 63.4 8.3 94.2 8.1 33.3 21.5 63.7 39.8 90.3 21.3 31 49.4 57 83.7 77.4 34.5-20.5 62.8-46.7 84.1-78 18.3-26.7 31.6-57.3 39.7-90.8 7.3-30.5 10-61.8 8.1-93.1-50.1-9.6-96.1-34.2-131.8-70.6-35.9 36.3-81.8 60.9-131.9 70.6z"/></g><g><path d="m258.1 337.1c-4 0-7.8-1.6-10.6-4.4l-56.1-56.4c-5.8-5.9-5.8-15.4.1-21.2s15.4-5.8 21.2.1l41.1 41.3 49.9-105.1c3.6-7.5 12.5-10.7 20-7.1s10.7 12.5 7.1 20l-59 124.4c-2.1 4.4-6.2 7.5-11 8.4-1.1-.1-1.9 0-2.7 0z"/></g></g></g></svg>